# xmcd CD database file
#
# Track frame offsets:
#	150
#	19045
#	40302
#	63130
#
# Disc length: 1088 seconds
#
# Revision: 0
# Processed by: cddbd v1.5PL3 Copyright (c) Steve Scherf et al.
# Submitted via: CDex 1.51
#
DISCID=28043e04
DTITLE=Various Artist - Break Out 新潟
DYEAR=0000
DGENRE=Other
TTITLE0=L' luvia/夢で逢いましょう
TTITLE1=Lastier/花の咲く場所
TTITLE2=SYNTHETIC MUSHROOMS/僕にだけ降る雨
TTITLE3=DearRouge/瞳の中で・・・
EXTD=YEAR: 0000
EXTT0=
EXTT1=
EXTT2=
EXTT3=
PLAYORDER=
